<svg id="Layer_1" data-name="Layer 1" xmlns="http://www.w3.org/2000/svg" viewBox="0 0 219 131"><defs><style>.cls-1{fill:#1e1e1e;}</style></defs><title>Artboard 1 copy</title><path class="cls-1" d="M216.92,124.4a27.55,27.55,0,0,1-8.93-3.19,14.1,14.1,0,0,1-5.07-5.44,30.63,30.63,0,0,1-3-9.39c-.66-3.9-1.71-79.78-1.6-83.14a13.21,13.21,0,0,1,1.58-6.5,12.9,12.9,0,0,1,3.71-3.93,15.86,15.86,0,0,1,4.73-2.14c1.84-.48,4.27-.84,5.57-1.06L217,9.25V1H177.29L134.38,44.11c-1.84-4.94-12.61-33.51-16-42.57L117.76,0h-4.67l-.75,1.48c-.42.75-1,1.82-1.86,3a32.82,32.82,0,0,1-2.94,3.69,30.49,30.49,0,0,1-4,3.65,25.2,25.2,0,0,1-5,3l-2.39,1.07L98.4,21c-2.63,6.15-10.6,24.43-11.76,27.18L41.11,1H2V9.25l2.43.36c1.31.22,3,.58,4.88,1.06a16.19,16.19,0,0,1,4.77,2.14,13,13,0,0,1,3.73,3.93,13.1,13.1,0,0,1,1.59,6.5c.12,3.36-.93,79.24-1.59,83.14a30.35,30.35,0,0,1-3,9.39,14,14,0,0,1-5.06,5.44,23.88,23.88,0,0,1-8.31,3.19L0,124.81V131H36v-6.32s-5.18-.59-6.6-8.74c-.37-2.09-.86-5.25-1.17-8.84-.33-3.85-.16-82.62-.15-85.35.86,1.93,31,33,48.34,50.82,0,0-17.59,39.36-19.35,42.22-2.24,3.64-2.7,5.72-5.39,7.35A48.26,48.26,0,0,1,47,124.45V131H82v-6.29l-1.65-.34c-1.46-.22-2.75-.48-4.38-.76a15.47,15.47,0,0,1-3.89-1.19,7.7,7.7,0,0,1-2.6-1.8,2.59,2.59,0,0,1-.63-1.91c0-1.49,32.34-82.65,33.65-85.84.18-.44.36-.86.53-1.26.48,1.21,1,2.5,1.53,3.88,1.55,4,28.93,76.89,29.53,79.16a19.42,19.42,0,0,1,.86,4.4,2.62,2.62,0,0,1-.82,2.06,9,9,0,0,1-2.95,1.87,16.11,16.11,0,0,1-3.6.88,5.07,5.07,0,0,1-2,.14H124v7h49v-6.89s-1.89-.64-3.51-1.4a15.59,15.59,0,0,1-4.05-2.74,18.85,18.85,0,0,1-2.73-3.09,18.62,18.62,0,0,1-1.3-2L157.79,107l0,0c-1-2.24-2.18-5.14-3.41-8.59l0-.06c-2.73-7.16-9.78-26-10.57-28.16C161.39,52,188.89,23.6,189.71,21.75c0,2.73.19,81.5-.15,85.35-.31,3.59-.21,6.75-.57,8.84-1.42,8.15-6,8.74-6,8.74V131h36v-6.19Z"/><polygon class="cls-1" points="108.53 101.45 119.48 91 97.56 91 108.53 101.45"/></svg>